HIERARCHY
ROOT hip
{
	OFFSET 0.000000 0.000000 0.000000 
	CHANNELS 6 Xposition Yposition Zposition Zrotation Xrotation Yrotation
	JOINT abdomen
	{
		OFFSET 0.000000 3.402643 0.000000 
		CHANNELS 3 Zrotation Xrotation Yrotation
		JOINT chest
		{
			OFFSET 0.000000 8.438565 -0.680529 
			CHANNELS 3 Zrotation Xrotation Yrotation
			JOINT neck
			{
				OFFSET 0.000000 10.207942 -0.272212 
				CHANNELS 3 Zrotation Xrotation Yrotation
				JOINT head
				{
					OFFSET 0.000000 3.130431 0.000000 
					CHANNELS 3 Zrotation Xrotation Yrotation
					End Site
					{
						OFFSET 0.000000 3.130435 0.000000 
					}
				}
			}
			JOINT lCollar
			{
				OFFSET 3.470700 6.669187 -0.816635 
				CHANNELS 3 Zrotation Xrotation Yrotation
				JOINT lShldr
				{
					OFFSET 3.198488 0.000000 0.000000 
					CHANNELS 3 Zrotation Xrotation Yrotation
					JOINT lForeArm
					{
						OFFSET 10.139888 0.000000 0.000000 
						CHANNELS 3 Zrotation Xrotation Yrotation
						JOINT lHand
						{
							OFFSET 8.370511 0.000000 0.000000 
							CHANNELS 3 Zrotation Xrotation Yrotation
							End Site
							{
								OFFSET 4.083176 0.000000 0.000000 
							}
						}
					}
				}
			}
			JOINT rCollar
			{
				OFFSET -3.470700 6.669187 -0.816635 
				CHANNELS 3 Zrotation Xrotation Yrotation
				JOINT rShldr
				{
					OFFSET -3.198488 0.000000 0.000000 
					CHANNELS 3 Zrotation Xrotation Yrotation
					JOINT rForeArm
					{
						OFFSET -10.139888 0.000000 0.000000 
						CHANNELS 3 Zrotation Xrotation Yrotation
						JOINT rHand
						{
							OFFSET -8.370511 0.000000 0.000000 
							CHANNELS 3 Zrotation Xrotation Yrotation
							End Site
							{
								OFFSET -4.083176 0.000000 0.000000 
							}
						}
					}
				}
			}
		}
	}
	JOINT lThigh
	{
		OFFSET 5.308129 -1.633274 1.361059 
		CHANNELS 3 Zrotation Xrotation Yrotation
		JOINT lShin
		{
			OFFSET -2.041588 -20.007561 0.000000 
			CHANNELS 3 Zrotation Xrotation Yrotation
			JOINT lFoot
			{
				OFFSET 0.000000 -19.190928 -1.224953 
				CHANNELS 3 Zrotation Xrotation Yrotation
				End Site
				{
					OFFSET 0.000000 -2.449906 4.627600 
				}
			}
		}
	}
	JOINT rThigh
	{
		OFFSET -5.308129 -1.633274 1.361059 
		CHANNELS 3 Zrotation Xrotation Yrotation
		JOINT rShin
		{
			OFFSET 2.041588 -20.007561 0.000000 
			CHANNELS 3 Zrotation Xrotation Yrotation
			JOINT rFoot
			{
				OFFSET 0.000000 -19.190928 -1.224953 
				CHANNELS 3 Zrotation Xrotation Yrotation
				End Site
				{
					OFFSET 0.000000 -2.449906 4.627600 
				}
			}
		}
	}
}
MOTION
Frames: 6
Frame Time: 0.033333
-1.287171 47.544563 -2.439324 0.820334 0.410114 35.248165 -0.000000 -0.000002 -0.000000 -1.760802 3.338274 -36.216095 -0.800337 12.537875 2.556565 -0.954937 -15.993991 -0.145955 -2.000757 -0.069240 1.990978 -74.906662 37.096783 4.115100 5.005469 8.102274 -59.606274 31.348112 -5.198930 -2.902567 1.990970 -0.069577 -2.000746 27.270620 48.147243 64.208580 -13.967686 4.680569 73.913208 -89.561920 -51.560165 -83.142380 7.738172 -15.366646 -16.742952 -8.095751 39.958530 3.635170 -7.231457 -25.679348 6.571488 -21.460764 -11.191460 -29.032961 11.737810 31.815783 -1.084276 -2.369957 -17.270792 -1.592724 
-1.194020 47.460629 -3.147481 1.113283 0.117166 37.507683 -0.000000 -0.000002 -0.000000 -1.673101 3.533656 -38.939819 -1.179430 12.302153 3.893908 -0.954937 -15.993991 -0.145955 -2.000757 -0.069240 1.990978 -74.150543 35.536556 1.596182 4.847617 8.332491 -57.006298 33.757740 -8.103113 -9.016522 1.990970 -0.069577 -2.000746 24.838842 46.741940 66.778908 -14.289756 3.428548 78.866951 -83.761909 -46.290890 -75.388306 7.348096 -16.600437 -16.724047 -8.495374 40.993217 3.905630 -7.052487 -25.219604 4.421795 -22.010117 -9.075983 -32.813278 12.635333 33.650768 -1.585923 -2.896219 -19.544930 0.352236 
-1.119694 47.274967 -3.750929 0.791376 -1.728351 38.168335 -0.000000 -0.000002 -0.000000 -1.984323 2.508268 -40.801788 -1.862621 11.351574 5.601118 -0.954937 -15.993991 -0.145955 -2.000757 -0.069240 1.990978 -73.714661 33.496021 -0.117104 4.770695 8.442449 -55.793938 34.123409 -8.490554 -10.131712 1.990970 -0.069577 -2.000746 19.296238 44.316723 72.098801 -14.285275 3.445777 78.760300 -87.039772 -46.289978 -78.174721 8.386509 -17.247021 -17.037531 -9.373828 43.862450 4.505177 -6.082014 -26.056410 4.090689 -21.303070 -8.589983 -32.728710 13.048559 34.492168 -1.807861 -2.573824 -18.112814 0.013147 
-1.097234 46.929817 -3.703736 0.234943 -3.984342 38.014355 -0.000000 -0.000002 -0.000000 -2.579068 1.551161 -42.674709 -2.452352 10.391071 7.297638 -0.954937 -15.993991 -0.145955 -2.000757 -0.069240 1.990978 -73.264763 31.413567 -1.773715 4.690278 8.538559 -54.589195 34.482754 -8.881895 -11.240006 1.990970 -0.069577 -2.000746 14.439470 41.546486 76.936211 -14.277184 3.481554 78.658371 -90.317871 -46.186047 -80.958443 10.138727 -17.107407 -17.372564 -10.519661 47.217552 5.326540 -5.530004 -28.088058 4.193917 -20.535479 -7.899282 -32.652130 14.213948 36.596203 -2.493783 -2.702635 -17.977289 0.558311 
-1.074775 46.572079 -3.656543 -0.324181 -6.230371 37.835873 -0.000000 -0.000002 -0.000000 -3.222839 0.614263 -44.565006 -2.959881 9.421237 8.990788 -0.954937 -15.993991 -0.145955 -2.000757 -0.069240 1.990978 -72.800362 29.322828 -3.371884 4.614285 8.641631 -53.375435 34.843113 -9.286227 -12.341961 1.990970 -0.069577 -2.000746 10.193880 38.462387 81.340469 -14.279748 3.512367 78.545181 -93.570854 -45.967228 -83.718628 11.889881 -16.803818 -17.795073 -11.737455 50.360493 6.222335 -5.009410 -30.041216 4.386484 -19.510916 -7.066050 -32.574749 15.161595 38.335613 -3.054210 -2.871189 -17.627001 1.015947 
-1.052325 46.201382 -3.609339 -0.898508 -8.485301 37.631073 -0.000000 -0.000002 -0.000000 -3.886765 -0.282551 -46.444977 -3.366432 8.423143 10.679227 -0.954937 -15.993991 -0.145955 -2.000757 -0.069240 1.990978 -72.316124 27.208057 -4.920582 4.535934 8.745315 -52.161304 35.175034 -9.693096 -13.447454 1.990970 -0.069577 -2.000746 6.581299 35.129921 85.321075 -14.265736 3.527665 78.437935 -96.796562 -45.635117 -86.455864 13.682831 -16.435579 -18.230806 -13.091455 53.363708 7.281093 -4.529353 -31.940845 4.514043 -18.489283 -6.152486 -32.478073 16.212236 39.932060 -3.740638 -3.034601 -17.260378 1.549031 
